# xmcd
#
# Track frame offsets:
#	150
#	25232
#	43528
#	60580
#	82650
#	108535
#	125139
#	148662
#	167815
#	184929
#	202976
#	222212
#	244025
#	264023
#	281800
#	298737
#	319107
#	337891
#
# Disc length: 4738 seconds
#
# Revision: 1
# Processed by: cddbd v1.5.2PL0 Copyright (c) Steve Scherf et al.
# Submitted via: EasyCDDAExtractor 11.0.2.1
#
DISCID=0a128012
DTITLE=Alabama 3 - Hits And Exit Wounds
DYEAR=2008
DGENRE=Blues
TTITLE0=Hypo Full Of Love
TTITLE1=Woke Up This Morning
TTITLE2=Hello... I'm Johnny Cash
TTITLE3=Mao Tse Tung Said
TTITLE4=Mansion On The Hill (Arthur Baker Remix)
TTITLE5=U Don't Danse To Tekno Anymore
TTITLE6=How Can I Protect You feat. Aslan (Dope Mix)
TTITLE7=Woody Guthrie
TTITLE8=Ain't Goin' To Goa
TTITLE9=Monday Don't Mean Anything
TTITLE10=Sad Eyed Lady Of The Low Life
TTITLE11=Amos Moses
TTITLE12=Too Sick To Pray
TTITLE13=Up Above My Head
TTITLE14=R.E.H.A.B.
TTITLE15=Speed Of The Sound Of Loneliness
TTITLE16=Ska'd For Life (Orbital Mix)
TTITLE17=Peace In The Valley
EXTD=
EXTT0=
EXTT1=
EXTT2=
EXTT3=
EXTT4=
EXTT5=
EXTT6=
EXTT7=
EXTT8=
EXTT9=
EXTT10=
EXTT11=
EXTT12=
EXTT13=
EXTT14=
EXTT15=
EXTT16=
EXTT17=
PLAYORDER=
